<svg width="1600" height="900" viewBox="0 0 1600 900" fill="none" xmlns="http://www.w3.org/2000/svg">
  <defs>
    <linearGradient id="heroGlow" x1="0" y1="0" x2="1" y2="1">
      <stop offset="0%" stop-color="#1e293b"/>
      <stop offset="100%" stop-color="#0f172a"/>
    </linearGradient>
    <linearGradient id="shot" x1="0" y1="0" x2="0" y2="1">
      <stop offset="0%" stop-color="#334155"/>
      <stop offset="100%" stop-color="#1e293b"/>
    </linearGradient>
  </defs>
  <rect width="1600" height="900" fill="#07090f"/>
  <rect x="48" y="36" width="1504" height="828" rx="12" fill="#0f172a" stroke="rgba(252,211,77,0.25)"/>
  <rect x="48" y="36" width="1504" height="44" rx="12" fill="#111827"/>
  <rect x="68" y="52" width="12" height="12" rx="6" fill="#ef4444"/>
  <rect x="88" y="52" width="12" height="12" rx="6" fill="#eab308"/>
  <rect x="108" y="52" width="12" height="12" rx="6" fill="#22c55e"/>
  <!-- nav -->
  <rect x="120" y="128" width="36" height="36" rx="8" fill="rgba(252,211,77,0.2)" stroke="rgba(252,211,77,0.45)"/>
  <rect x="168" y="138" width="120" height="14" rx="3" fill="#e2e8f0" fill-opacity="0.35"/>
  <rect x="1180" y="138" width="52" height="10" rx="2" fill="#94a3b8"/>
  <rect x="1250" y="138" width="64" height="10" rx="2" fill="#94a3b8"/>
  <rect x="1330" y="138" width="48" height="10" rx="2" fill="#94a3b8"/>
  <rect x="1420" y="124" width="120" height="44" rx="22" fill="#fcd34d"/>
  <rect x="1448" y="140" width="64" height="12" rx="2" fill="#0f172a"/>
  <!-- hero split -->
  <rect x="80" y="200" width="1440" height="420" fill="url(#heroGlow)"/>
  <rect x="120" y="240" width="8" height="200" rx="4" fill="#fcd34d" fill-opacity="0.85"/>
  <rect x="150" y="248" width="520" height="28" rx="4" fill="#f8fafc" fill-opacity="0.95"/>
  <rect x="150" y="292" width="440" height="22" rx="4" fill="#e2e8f0" fill-opacity="0.55"/>
  <rect x="150" y="328" width="480" height="22" rx="4" fill="#e2e8f0" fill-opacity="0.45"/>
  <rect x="150" y="380" width="380" height="26" rx="4" fill="#fcd34d" fill-opacity="0.9"/>
  <rect x="150" y="440" width="220" height="52" rx="26" fill="#fcd34d"/>
  <rect x="188" y="458" width="144" height="16" rx="3" fill="#0f172a"/>
  <rect x="150" y="520" width="420" height="14" rx="3" fill="#94a3b8"/>
  <rect x="150" y="544" width="360" height="14" rx="3" fill="#64748b"/>
  <!-- right visual -->
  <rect x="920" y="220" width="560" height="360" rx="20" fill="url(#shot)" stroke="rgba(252,211,77,0.2)"/>
  <rect x="960" y="280" width="480" height="240" rx="12" fill="#1e293b"/>
  <circle cx="1280" cy="400" r="48" fill="rgba(252,211,77,0.12)" stroke="rgba(252,211,77,0.35)"/>
  <!-- trust strip -->
  <rect x="120" y="660" width="1360" height="56" rx="12" fill="rgba(255,255,255,0.03)" stroke="rgba(148,163,184,0.2)"/>
  <rect x="160" y="678" width="140" height="20" rx="6" fill="rgba(252,211,77,0.08)" stroke="rgba(252,211,77,0.25)"/>
  <rect x="340" y="678" width="160" height="20" rx="6" fill="rgba(252,211,77,0.08)" stroke="rgba(252,211,77,0.25)"/>
  <rect x="540" y="678" width="120" height="20" rx="6" fill="rgba(252,211,77,0.08)" stroke="rgba(252,211,77,0.25)"/>
  <text x="120" y="118" fill="#94a3b8" font-family="system-ui,sans-serif" font-size="22" font-weight="600">Hotel · homepage (premium)</text>
</svg>
