<svg width="1600" height="900" viewBox="0 0 1600 900" xmlns="http://www.w3.org/2000/svg">
  <rect width="1600" height="900" fill="#f4f1ea"/>
  <rect x="48" y="36" width="1504" height="828" rx="12" fill="#faf8f3" stroke="#d4c4a8"/>
  <rect x="48" y="36" width="1504" height="44" rx="12" fill="#f0ebe3"/>
  <rect x="80" y="100" width="1440" height="748" fill="#faf8f3"/>
  <rect x="120" y="128" width="40" height="40" rx="10" fill="rgba(180,83,9,0.15)" stroke="rgba(180,83,9,0.35)"/>
  <rect x="175" y="138" width="140" height="14" rx="3" fill="#334155"/>
  <rect x="1180" y="134" width="110" height="36" rx="18" fill="#b45309"/>
  <rect x="120" y="210" width="620" height="36" rx="6" fill="#1e293b"/>
  <rect x="120" y="260" width="540" height="22" rx="4" fill="#64748b"/>
  <rect x="120" y="294" width="480" height="22" rx="4" fill="#94a3b8"/>
  <rect x="120" y="350" width="240" height="52" rx="26" fill="#b45309"/>
  <rect x="168" y="368" width="144" height="16" rx="3" fill="#fffbeb"/>
  <rect x="800" y="200" width="680" height="380" rx="20" fill="#e7e2d9" stroke="#c4b5a0"/>
  <rect x="840" y="240" width="600" height="300" rx="12" fill="#d6cfc2"/>
  <rect x="120" y="620" width="1360" height="56" rx="12" fill="#fff" stroke="#e2d8c8"/>
  <rect x="160" y="638" width="120" height="20" rx="6" fill="#f1f5f9"/>
  <rect x="300" y="638" width="140" height="20" rx="6" fill="#f1f5f9"/>
  <rect x="460" y="638" width="100" height="20" rx="6" fill="#f1f5f9"/>
</svg>
